PathFileType	3	(X/Y/Z)	D:\minhoCalibration\240510\subject2_KPNP\preferred\preferred08.trc
DataRate	CameraRate	NumFrames	NumMarkers	Units	OrigDataRate	OrigDataStartFrame	OrigNumFrames
200.0	200.0	12	10	mm	200.0	526	229	
Frame#	Time	Left_Ankle_Outer1			Left_Ankle_Inner1			Left_Knee_Outer1			Left_Knee_Inner1			Left_Wrist1			Right_Wrist1			Right_Knee_Inner1			Right_Knee_Outer1			Right_Ankle_Inner1			Right_Ankle_Outer1			
		X1	Y1	Z1	X2	Y2	Z2	X3	Y3	Z3	X4	Y4	Z4	X5	Y5	Z5	X6	Y6	Z6	X7	Y7	Z7	X8	Y8	Z8	X9	Y9	Z9	X10	Y10	Z10	
526	2.62	-494.62155	115.98163	-794.97076	-514.86523	126.71481	-742.4599	-346.20169	542.77209	-773.54498	-386.15146	523.75189	-689.55505	-383.21313	983.62329	-849.98767	-542.14099	1170.3744	-599.99622	-307.61285	967.8916	-240.32452	-367.80505	1042.8647	-227.77666	-521.15967	710.02783	20.10598	-571.60803	791.10455	55.672699
527	2.625	-494.00412	114.98098	-795.95941	-515.33038	125.66859	-743.91974	-345.80438	542.01453	-771.85144	-388.0705	522.9837	-688.84198	-381.18076	984.61786	-849.91876	-544.85474	1167.7744	-600.52185	-309.94589	964.7287	-240.88075	-371.41132	1038.6801	-227.69524	-527.29492	698.71533	8.4910374	-579.16064	777.7998	44.103977
528	2.63	-493.59665	114.09297	-797.07965	-515.77069	124.75172	-745.23981	-345.46799	541.30273	-770.46063	-390.40491	522.224	-688.56335	-379.33386	985.26227	-849.33636	-547.73602	1165.0929	-601.04987	-312.28836	961.81274	-241.21123	-375.43951	1034.5378	-227.55005	-533.81342	686.508	-3.1762402	-586.54462	764.45648	32.494392
529	2.635	-493.36295	113.06824	-797.88318	-516.04974	123.54549	-746.46783	-345.80341	540.19202	-769.12592	-392.91174	521.40674	-688.81232	-377.16568	986.10529	-849.27679	-550.61688	1162.2119	-601.58459	-314.91342	958.98181	-241.39734	-379.80817	1030.3707	-227.27315	-537.04303	675.48029	-16.98103	-593.64771	751.22339	20.912491
530	2.64	-493.38754	112.15986	-798.66522	-516.40009	123.32783	-746.37732	-345.91589	539.32062	-768.30426	-395.35663	520.47394	-688.89526	-375.14917	986.65009	-848.81018	-553.59869	1159.174	-602.14301	-317.62918	956.36737	-241.29305	-385.02545	1026.526	-226.81155	-542.05249	663.36414	-29.296127	-600.4826	737.28864	8.597373
531	2.645	-493.51764	111.19387	-799.18854	-517.41577	121.56093	-747.98206	-346.30804	538.23254	-767.78729	-397.70627	519.4624	-689.26514	-373.19748	987.04852	-848.17712	-556.68622	1155.9602	-602.8277	-321.15466	953.60236	-240.99432	-390.52966	1021.8701	-226.65587	-547.54694	651.70312	-40.715702	-606.94073	723.48151	-3.8272846
532	2.65	-493.83768	110.22601	-799.53094	-518.03833	120.78278	-748.22015	-347.20828	536.93451	-767.57672	-399.64896	518.31989	-689.89783	-371.08688	987.40985	-847.5343	-559.80493	1152.4935	-603.63129	-325.13745	950.67566	-240.3129	-396.43869	1017.2342	-226.21196	-550.39258	640.49219	-54.377403	-612.60608	709.5448	-16.579891
533	2.655	-494.29971	109.18578	-799.70447	-519.60931	120.25087	-746.79407	-348.01526	535.73395	-767.62219	-402.50284	517.39758	-690.28003	-369.11572	987.59369	-846.78699	-562.99927	1148.988	-604.62689	-329.52194	947.4964	-239.33325	-402.69052	1012.3353	-225.64418	-554.63068	628.25854	-67.162262	-618.2373	695.66119	-29.138441
534	2.66	-494.86435	108.11021	-799.79242	-519.92267	118.70539	-748.25128	-349.10275	534.3623	-767.90234	-404.29379	516.4101	-691.21497	-367.19067	987.60791	-846.02325	-565.9751	1145.3892	-605.83331	-334.07086	944.01642	-238.31932	-409.23941	1006.8743	-225.14865	-558.23212	616.40741	-80.223015	-623.51318	681.9624	-41.641754
535	2.665	-495.60614	106.99333	-799.71985	-521.36798	118.08478	-746.95221	-350.02332	533.19373	-768.40009	-406.11731	515.48615	-691.69043	-365.29004	987.51636	-845.30603	-568.73395	1141.7963	-607.15051	-338.90454	940.05347	-237.28712	-415.88373	1001.0085	-224.56403	-559.86914	605.74689	-94.208542	-628.30188	667.95453	-54.419815
536	2.67	-496.44312	105.89553	-799.53333	-521.56079	116.23073	-748.35016	-351.03448	531.966	-768.97461	-407.6813	514.32898	-692.25592	-363.46469	987.30237	-844.57397	-571.22919	1138.3119	-608.6015	-343.89563	935.61932	-236.45267	-422.74915	994.55518	-224.39166	-564.68341	592.22064	-106.26435	-632.75012	654.35687	-67.125702
537	2.675	-497.51794	104.75372	-799.22272	-522.86145	115.36318	-746.45599	-352.01923	530.71899	-769.64948	-409.07364	513.32568	-692.95703	-361.83438	986.97778	-843.90448	-573.56464	1134.8993	-610.01154	-349.16177	930.66205	-235.81999	-429.60629	987.69208	-224.39523	-565.03918	580.89435	-121.44135	-636.85712	640.66516	-79.95031
